<svg width="65" height="56" viewBox="0 0 65 56" fill="none" xmlns="http://www.w3.org/2000/svg">
 <path d="M64.64 40C64.64 42.9333 63.92 45.6267 62.48 48.08C61.04 50.48 59.12 52.4 56.72 53.84C54.32 55.28 51.6266 56 48.64 56H-4.37498e-05V48H48.64C50.88 48 52.7733 47.2267 54.32 45.68C55.8666 44.08 56.64 42.1867 56.64 40C56.64 37.8133 55.8666 35.9467 54.32 34.4C52.7733 32.8 50.88 32 48.64 32H16C13.0666 32 10.3733 31.28 7.91996 29.84C5.51996 28.4 3.59996 26.48 2.15996 24.08C0.719956 21.6267 -4.37498e-05 18.9333 -4.37498e-05 16C-4.37498e-05 13.0667 0.719956 10.4 2.15996 8C3.59996 5.54666 5.51996 3.6 7.91996 2.16C10.3733 0.719996 13.0666 -3.8147e-06 16 -3.8147e-06H60.64V8H16C13.8133 8 11.92 8.8 10.32 10.4C8.77329 11.9467 7.99996 13.8133 7.99996 16C7.99996 18.1867 8.77329 20.08 10.32 21.68C11.92 23.2267 13.8133 24 16 24H48.64C51.6266 24 54.32 24.72 56.72 26.16C59.12 27.6 61.04 29.5467 62.48 32C63.92 34.4 64.64 37.0667 64.64 40Z" fill="white"/>
</svg>
